HIERARCHY
ROOT Hips
{
	OFFSET 0.000000 0.000000 0.000000 
	CHANNELS 6 Xposition Yposition Zposition Zrotation Yrotation Xrotation
	JOINT LeftUpLeg
	{
		OFFSET 1.363060 -1.794630 0.839290 
		CHANNELS 3 Zrotation Yrotation Xrotation
		JOINT LeftLeg
		{
			OFFSET 2.448110 -6.726130 0.000000 
			CHANNELS 3 Zrotation Yrotation Xrotation
			JOINT LeftFoot
			{
				OFFSET 2.562200 -7.039590 0.000000 
				CHANNELS 3 Zrotation Yrotation Xrotation
				JOINT LeftToeBase
				{
					OFFSET 0.157640 -0.433110 2.322550 
					CHANNELS 3 Zrotation Yrotation Xrotation
					End Site
					{
						OFFSET 0.000000 0.000000 0.000000 
					}
				}
			}
		}
	}
	JOINT RightUpLeg
	{
		OFFSET -1.305520 -1.794630 0.839290 
		CHANNELS 3 Zrotation Yrotation Xrotation
		JOINT RightLeg
		{
			OFFSET -2.542530 -6.985550 0.000000 
			CHANNELS 3 Zrotation Yrotation Xrotation
			JOINT RightFoot
			{
				OFFSET -2.568260 -7.056230 0.000000 
				CHANNELS 3 Zrotation Yrotation Xrotation
				JOINT RightToeBase
				{
					OFFSET -0.164730 -0.452590 2.363150 
					CHANNELS 3 Zrotation Yrotation Xrotation
					End Site
					{
						OFFSET 0.000000 0.000000 0.000000 
					}
				}
			}
		}
	}
	JOINT Spine
	{
		OFFSET 0.028270 2.035590 -0.193380 
		CHANNELS 3 Zrotation Yrotation Xrotation
		JOINT Spine1
		{
			OFFSET 0.056720 2.048850 -0.042750 
			CHANNELS 3 Zrotation Yrotation Xrotation
			JOINT Neck1
			{
				OFFSET -0.054170 1.746240 0.172020 
				CHANNELS 3 Zrotation Yrotation Xrotation
				JOINT Head
				{
					OFFSET 0.104070 1.761360 -0.123970 
					CHANNELS 3 Zrotation Yrotation Xrotation
					End Site
					{
						OFFSET 0.000000 0.000000 0.000000 
					}
				}
			}
			JOINT LeftArm
			{
				OFFSET 3.362410 1.200890 -0.311210 
				CHANNELS 3 Zrotation Yrotation Xrotation
				JOINT LeftForeArm
				{
					OFFSET 4.983000 -0.000000 -0.000000 
					CHANNELS 3 Zrotation Yrotation Xrotation
					JOINT LeftHand
					{
						OFFSET 3.483560 -0.000000 -0.000000 
						CHANNELS 3 Zrotation Yrotation Xrotation
						JOINT LeftHandIndex1
						{
							OFFSET 0.715260 -0.000000 -0.000000 
							CHANNELS 3 Zrotation Yrotation Xrotation
							End Site
							{
								OFFSET 0.000000 0.000000 0.000000 
							}
						}
					}
				}
			}
			JOINT RightArm
			{
				OFFSET -3.136600 1.374050 -0.404650 
				CHANNELS 3 Zrotation Yrotation Xrotation
				JOINT RightForeArm
				{
					OFFSET -5.241900 -0.000000 -0.000000 
					CHANNELS 3 Zrotation Yrotation Xrotation
					JOINT RightHand
					{
						OFFSET -3.444170 -0.000000 -0.000000 
						CHANNELS 3 Zrotation Yrotation Xrotation
						JOINT RightHandIndex1
						{
							OFFSET -0.622530 -0.000000 -0.000000 
							CHANNELS 3 Zrotation Yrotation Xrotation
							End Site
							{
								OFFSET 0.000000 0.000000 0.000000 
							}
						}
					}
				}
			}
		}
	}
}
MOTION
Frames: 7
Frame Time: 0.041667
1.008194 17.400965 -9.391461 5.374241 15.007022 8.243106 -15.667403 1.805350 11.446620 -1.060833 3.875781 9.067771 -1.112958 7.765629 4.750506 2.050200 -8.969800 -25.701000 8.470010 2.727366 -38.288458 -5.492425 -14.670469 42.918507 4.835046 -19.557339 -0.157528 -0.004600 0.438400 -1.204600 0.588621 -1.144796 -2.332003 4.932870 -0.545668 -3.367874 7.280637 -1.450437 2.942406 -0.352100 -0.684700 6.044600 -92.687574 2.865679 15.342020 11.616327 -19.314575 -1.876925 0.246846 0.305910 1.848034 -7.125000 0.000000 0.000000 89.332703 -0.114480 16.778915 -13.485918 22.618380 -2.695593 0.084138 -0.480653 -4.159040 7.125000 0.000000 0.000000 
0.999002 17.414353 -9.193739 5.346162 14.807106 8.104538 -15.406203 1.774101 11.442455 -0.981855 4.305872 10.248787 -0.975358 7.441108 5.891557 2.238300 -9.345600 -26.882600 8.781104 2.498233 -37.848446 -5.584246 -14.776309 43.346711 4.732548 -19.198790 -0.228526 -0.009000 0.613300 -1.685200 0.583357 -1.142929 -2.379203 4.868299 -0.541021 -3.448976 7.335093 -1.363476 2.879052 -0.329800 -0.641200 6.045500 -92.813027 3.346303 13.827081 11.139640 -18.603466 -1.734478 0.244518 0.292299 3.225257 -7.125000 0.000000 0.000000 89.520433 -0.342947 16.479111 -13.296495 22.370210 -2.634250 0.080617 -0.480987 -3.974999 7.125000 0.000000 0.000000 
0.991309 17.437432 -8.994218 5.273036 14.651691 7.937025 -15.060484 1.807681 11.286609 -0.881090 4.791400 11.601277 -0.780304 6.971669 7.327511 2.422900 -9.696400 -27.999000 9.161717 2.126598 -37.284916 -5.610233 -14.825274 43.541902 4.626545 -18.814666 -0.340496 -0.019400 0.899000 -2.470900 0.583740 -1.158033 -2.416294 4.762808 -0.546960 -3.511302 7.358280 -1.269415 2.775719 -0.318300 -0.599400 6.029900 -92.934209 3.838830 12.270468 10.708880 -17.953554 -1.609828 0.240782 0.279715 4.577486 -7.125000 0.000000 0.000000 89.692491 -0.584265 16.289279 -13.110664 22.126628 -2.574878 0.077555 -0.481703 -3.865727 7.125000 0.000000 0.000000 
0.986214 17.470802 -8.794798 5.131482 14.523569 7.762592 -14.643988 1.793029 10.959228 -0.754423 5.345002 13.150752 -0.565369 6.523613 9.066540 2.596300 -10.011000 -29.012400 9.621916 1.622227 -36.619700 -5.561574 -14.809844 43.470610 4.508116 -18.382911 -0.426853 -0.035600 1.217600 -3.347800 0.588500 -1.176075 -2.449238 4.591866 -0.557217 -3.553867 7.360729 -1.174058 2.639095 -0.315100 -0.560400 5.998500 -93.040096 4.320783 10.722212 10.311352 -17.348203 -1.498648 0.236048 0.269446 5.878346 -7.125000 0.000000 0.000000 89.849004 -0.834127 16.217517 -12.938666 21.901380 -2.520666 0.075600 -0.482910 -3.851616 7.125000 0.000000 0.000000 
0.982917 17.515861 -8.595976 4.904435 14.439153 7.598192 -14.134049 1.707733 10.426068 -0.596655 5.964649 14.896357 -0.325186 6.112028 11.138708 2.730800 -10.246000 -29.777000 10.168490 1.015027 -35.861839 -5.436555 -14.726278 43.116170 4.384506 -17.938875 -0.429396 -0.055100 1.514700 -4.166300 0.607231 -1.203963 -2.491230 4.369517 -0.573979 -3.589511 7.346846 -1.089925 2.499345 -0.318900 -0.528200 5.959700 -93.135244 4.803626 9.224128 9.951581 -16.795589 -1.401108 0.230834 0.262174 7.117169 -7.125000 0.000000 0.000000 89.984475 -1.101299 16.250540 -12.775266 21.687205 -2.469144 0.074203 -0.484041 -3.877394 7.125000 0.000000 0.000000 
0.981118 17.572810 -8.399453 4.596003 14.399567 7.450472 -13.534677 1.563700 9.672216 -0.402581 6.640810 16.819870 -0.048061 5.733963 13.568527 2.784400 -10.337600 -30.077100 10.784180 0.343603 -35.020663 -5.239577 -14.574760 42.485601 4.258796 -17.498871 -0.314612 -0.075700 1.774600 -4.883100 0.641518 -1.237499 -2.545734 4.106145 -0.594435 -3.631756 7.338291 -1.024109 2.380316 -0.320500 -0.503400 5.927400 -93.219153 5.248860 7.759471 9.600560 -16.252539 -1.309178 0.226220 0.254781 8.344784 -7.125000 0.000000 0.000000 90.089817 -1.395011 16.392369 -12.635814 21.504709 -2.425082 0.073536 -0.484903 -3.953733 7.125000 0.000000 0.000000 
0.979720 17.641149 -8.205727 4.229222 14.439178 7.323290 -12.863880 1.338157 8.727021 -0.169448 7.359947 18.889966 0.272438 5.382279 16.292667 2.720900 -10.228900 -29.721400 11.434840 -0.361220 -34.100913 -4.982451 -14.360226 41.607748 4.138824 -17.094581 -0.072875 -0.097600 2.014600 -5.545900 0.694540 -1.284649 -2.607436 3.830452 -0.621978 -3.670232 7.303164 -0.982375 2.275191 -0.336300 -0.490800 5.895000 -93.290841 5.625337 6.329639 9.245916 -15.701146 -1.219383 0.222073 0.247298 9.582763 -7.125000 0.000000 0.000000 90.162440 -1.700635 16.580705 -12.515198 21.345919 -2.385946 0.073381 -0.484920 -4.014600 7.125000 0.000000 0.000000 
